<svg width="28" height="26" viewBox="0 0 28 26" fill="none" xmlns="http://www.w3.org/2000/svg">
<path d="M1.38281 1.37915H8.88281C10.2089 1.37915 11.4807 1.90593 12.4183 2.84362C13.356 3.7813 13.8828 5.05307 13.8828 6.37915V23.8792C13.8828 22.8846 13.4877 21.9308 12.7845 21.2275C12.0812 20.5242 11.1274 20.1292 10.1328 20.1292H1.38281V1.37915Z" stroke="black" stroke-width="2.5" stroke-linecap="round" stroke-linejoin="round"/>
<path d="M26.3828 1.37915H18.8828C17.5567 1.37915 16.285 1.90593 15.3473 2.84362C14.4096 3.7813 13.8828 5.05307 13.8828 6.37915V23.8792C13.8828 22.8846 14.2779 21.9308 14.9812 21.2275C15.6844 20.5242 16.6383 20.1292 17.6328 20.1292H26.3828V1.37915Z" stroke="black" stroke-width="2.5" stroke-linecap="round" stroke-linejoin="round"/>
</svg>
