<svg width="210" height="43" viewBox="0 0 210 43" fill="none" xmlns="http://www.w3.org/2000/svg">
<path d="M19.144 24.6965C19.144 24.0813 19.0488 23.532 18.8584 23.0486C18.6826 22.5505 18.353 22.1038 17.8696 21.7083C17.4009 21.2981 16.7344 20.9026 15.8701 20.5217C15.0205 20.1262 13.9219 19.7161 12.5742 19.2913C11.0801 18.8225 9.68848 18.2952 8.39941 17.7092C7.11035 17.1233 5.9751 16.4421 4.99365 15.6658C4.02686 14.8894 3.27246 13.9958 2.73047 12.9851C2.18848 11.9597 1.91748 10.7732 1.91748 9.42554C1.91748 8.10718 2.1958 6.90601 2.75244 5.82202C3.32373 4.73804 4.12939 3.80786 5.16943 3.03149C6.20947 2.24048 7.43262 1.63257 8.83887 1.20776C10.2598 0.782959 11.8271 0.570557 13.541 0.570557C15.9141 0.570557 17.9648 1.00269 19.6934 1.86694C21.4365 2.7312 22.7842 3.90308 23.7363 5.38257C24.6885 6.86206 25.1646 8.52466 25.1646 10.3704H19.144C19.144 9.37427 18.9316 8.49536 18.5068 7.73364C18.0967 6.97192 17.4668 6.37134 16.6172 5.93188C15.7822 5.49243 14.7275 5.27271 13.4531 5.27271C12.2227 5.27271 11.1973 5.45581 10.377 5.82202C9.57129 6.18823 8.96338 6.68628 8.55322 7.31616C8.15771 7.94604 7.95996 8.64917 7.95996 9.42554C7.95996 10.0115 8.09912 10.5388 8.37744 11.0076C8.65576 11.4617 9.07324 11.8938 9.62988 12.304C10.1865 12.6995 10.875 13.073 11.6953 13.4246C12.5303 13.7615 13.4971 14.0984 14.5957 14.4353C16.3535 14.9626 17.8916 15.5486 19.21 16.1931C20.543 16.8376 21.6489 17.5701 22.5278 18.3904C23.4214 19.2107 24.0879 20.1335 24.5273 21.1589C24.9814 22.1843 25.2085 23.3489 25.2085 24.6526C25.2085 26.0295 24.9375 27.26 24.3955 28.344C23.8535 29.428 23.0771 30.3508 22.0664 31.1125C21.0557 31.8743 19.8398 32.4529 18.4189 32.8484C17.0127 33.2439 15.438 33.4417 13.6948 33.4417C12.1421 33.4417 10.604 33.2366 9.08057 32.8264C7.57178 32.4016 6.20215 31.7717 4.97168 30.9368C3.74121 30.0872 2.75977 29.0178 2.02734 27.7288C1.29492 26.425 0.928711 24.9016 0.928711 23.1584H6.99316C6.99316 24.1692 7.1543 25.0334 7.47656 25.7512C7.81348 26.4543 8.28223 27.033 8.88281 27.4871C9.49805 27.9265 10.2158 28.2488 11.0361 28.4539C11.8564 28.6589 12.7427 28.7615 13.6948 28.7615C14.9253 28.7615 15.936 28.593 16.7271 28.2561C17.5327 27.9045 18.1333 27.4211 18.5288 26.8059C18.939 26.1907 19.144 25.4875 19.144 24.6965ZM36.3926 30.3655L42.7646 9.22778H48.9829L39.4468 36.6057C39.2271 37.1917 38.9414 37.8289 38.5898 38.5173C38.2529 39.2058 37.7988 39.8577 37.2275 40.4729C36.6562 41.1028 35.9385 41.6155 35.0742 42.011C34.2246 42.4065 33.1919 42.6042 31.9761 42.6042C31.4487 42.6042 30.98 42.5676 30.5698 42.4944C30.1597 42.4211 29.7275 42.3259 29.2734 42.2087V37.8582C29.4199 37.8728 29.5884 37.8801 29.7788 37.8801C29.9839 37.8948 30.1597 37.9021 30.3062 37.9021C31.1558 37.9021 31.8589 37.7996 32.4155 37.5945C32.9722 37.4041 33.4189 37.0891 33.7559 36.6497C34.1074 36.2249 34.4004 35.6682 34.6348 34.9797L36.3926 30.3655ZM33.2505 9.22778L38.6338 26.74L39.5786 32.8704L35.5796 33.5955L26.9883 9.22778H33.2505ZM57.4863 14.3035V33.0022H51.6855V9.22778H57.1348L57.4863 14.3035ZM56.5635 20.2581H54.8496C54.8643 18.5295 55.0986 16.9622 55.5527 15.5559C56.0068 14.1497 56.644 12.9412 57.4644 11.9304C58.2993 10.9197 59.2881 10.1433 60.4307 9.60132C61.5732 9.05933 62.8477 8.78833 64.2539 8.78833C65.3965 8.78833 66.4292 8.94946 67.3521 9.27173C68.2749 9.59399 69.0659 10.1067 69.7251 10.8098C70.3989 11.5129 70.9116 12.4358 71.2632 13.5784C71.6294 14.7063 71.8125 16.0979 71.8125 17.7532V33.0022H65.9678V17.7092C65.9678 16.6252 65.8066 15.7683 65.4844 15.1384C65.1768 14.5085 64.7227 14.0618 64.1221 13.7981C63.5361 13.5344 62.811 13.4026 61.9468 13.4026C61.0532 13.4026 60.2695 13.5857 59.5957 13.9519C58.9365 14.3035 58.3799 14.7942 57.9258 15.4241C57.4863 16.054 57.1494 16.7791 56.915 17.5994C56.6807 18.4197 56.5635 19.3059 56.5635 20.2581ZM86.688 28.8713C87.5083 28.8713 88.2407 28.7102 88.8853 28.3879C89.5298 28.0657 90.0425 27.6116 90.4233 27.0256C90.8188 26.4397 91.0312 25.7585 91.0605 24.9822H96.5317C96.5024 26.5935 96.0483 28.0364 95.1694 29.3108C94.2905 30.5852 93.1187 31.5959 91.6538 32.343C90.2036 33.0754 88.5776 33.4417 86.7759 33.4417C84.9448 33.4417 83.3481 33.134 81.9858 32.5188C80.6235 31.9036 79.4883 31.0466 78.5801 29.948C77.6865 28.8494 77.0127 27.575 76.5586 26.1248C76.1191 24.6746 75.8994 23.1218 75.8994 21.4666V20.7634C75.8994 19.1082 76.1191 17.5554 76.5586 16.1052C77.0127 14.655 77.6865 13.3806 78.5801 12.282C79.4883 11.1833 80.6235 10.3264 81.9858 9.71118C83.3481 9.09595 84.9375 8.78833 86.7539 8.78833C88.6729 8.78833 90.3574 9.16187 91.8076 9.90894C93.2725 10.656 94.415 11.7107 95.2354 13.073C96.0703 14.4353 96.5024 16.0393 96.5317 17.885H91.0605C91.0312 17.0354 90.8408 16.2737 90.4893 15.5999C90.1377 14.926 89.6396 14.384 88.9951 13.9739C88.3506 13.5637 87.5669 13.3586 86.644 13.3586C85.6626 13.3586 84.8423 13.5637 84.1831 13.9739C83.5386 14.384 83.0332 14.948 82.667 15.6658C82.3154 16.3689 82.0664 17.1599 81.9199 18.0388C81.7881 18.9031 81.7222 19.8113 81.7222 20.7634V21.4666C81.7222 22.4333 81.7881 23.3562 81.9199 24.2351C82.0664 25.114 82.3154 25.905 82.667 26.6082C83.0332 27.2966 83.5386 27.8459 84.1831 28.2561C84.8423 28.6663 85.6772 28.8713 86.688 28.8713ZM121.141 28.2561V33.0022H105.057V28.2561H121.141ZM106.881 1.01001V33.0022H100.838V1.01001H106.881ZM135.423 33.4417C133.622 33.4417 132.003 33.1487 130.567 32.5627C129.132 31.9768 127.909 31.1638 126.898 30.1238C125.902 29.0691 125.133 27.8459 124.591 26.4543C124.063 25.0481 123.8 23.5393 123.8 21.928V21.0491C123.8 19.218 124.063 17.5554 124.591 16.0613C125.118 14.5525 125.865 13.2561 126.832 12.1721C127.799 11.0881 128.956 10.2532 130.304 9.66724C131.651 9.0813 133.138 8.78833 134.764 8.78833C136.449 8.78833 137.936 9.07397 139.225 9.64526C140.514 10.2019 141.59 10.9929 142.455 12.0183C143.319 13.0437 143.971 14.2742 144.41 15.7097C144.85 17.1306 145.069 18.7053 145.069 20.4338V22.8728H126.437V18.8738H139.356V18.4343C139.327 17.5115 139.151 16.6692 138.829 15.9075C138.507 15.1311 138.009 14.5159 137.335 14.0618C136.661 13.593 135.79 13.3586 134.72 13.3586C133.856 13.3586 133.102 13.5491 132.457 13.9299C131.827 14.2961 131.3 14.8235 130.875 15.512C130.465 16.1858 130.157 16.9915 129.952 17.929C129.747 18.8665 129.645 19.9065 129.645 21.0491V21.928C129.645 22.9241 129.776 23.8469 130.04 24.6965C130.318 25.5461 130.721 26.2859 131.249 26.9158C131.791 27.531 132.435 28.0144 133.182 28.366C133.944 28.7029 134.808 28.8713 135.775 28.8713C136.991 28.8713 138.089 28.637 139.071 28.1682C140.067 27.6848 140.931 26.9744 141.664 26.0369L144.586 29.0691C144.088 29.8015 143.414 30.5046 142.564 31.1785C141.729 31.8523 140.719 32.4016 139.532 32.8264C138.346 33.2366 136.976 33.4417 135.423 33.4417ZM162.054 27.9485V16.9841C162.054 16.1785 161.915 15.4827 161.637 14.8967C161.358 14.3108 160.934 13.8567 160.362 13.5344C159.791 13.2122 159.066 13.051 158.187 13.051C157.411 13.051 156.729 13.1829 156.144 13.4465C155.572 13.7102 155.133 14.0837 154.825 14.5671C154.518 15.0359 154.364 15.5779 154.364 16.1931H148.541C148.541 15.2117 148.775 14.2815 149.244 13.4026C149.713 12.509 150.379 11.718 151.244 11.0295C152.123 10.3264 153.17 9.7771 154.386 9.38159C155.616 8.98608 156.993 8.78833 158.517 8.78833C160.318 8.78833 161.922 9.09595 163.329 9.71118C164.75 10.3118 165.863 11.22 166.668 12.4358C167.489 13.6516 167.899 15.1824 167.899 17.0281V27.3992C167.899 28.5857 167.972 29.6038 168.119 30.4534C168.28 31.2883 168.514 32.0134 168.822 32.6287V33.0022H162.911C162.633 32.4016 162.42 31.6399 162.274 30.717C162.127 29.7795 162.054 28.8567 162.054 27.9485ZM162.867 18.5222L162.911 21.9719H159.242C158.333 21.9719 157.535 22.0671 156.847 22.2576C156.158 22.4333 155.594 22.697 155.155 23.0486C154.715 23.3855 154.386 23.7957 154.166 24.2791C153.946 24.7478 153.836 25.2825 153.836 25.8831C153.836 26.469 153.968 26.9963 154.232 27.4651C154.51 27.9338 154.906 28.3074 155.418 28.5857C155.946 28.8494 156.561 28.9812 157.264 28.9812C158.29 28.9812 159.183 28.7761 159.945 28.366C160.707 27.9412 161.3 27.4285 161.725 26.8279C162.149 26.2273 162.376 25.656 162.406 25.114L164.076 27.6189C163.871 28.2195 163.563 28.8567 163.153 29.5305C162.743 30.2043 162.215 30.8342 161.571 31.4202C160.926 32.0061 160.15 32.4895 159.242 32.8704C158.333 33.2512 157.279 33.4417 156.078 33.4417C154.54 33.4417 153.163 33.134 151.947 32.5188C150.731 31.9036 149.771 31.0613 149.068 29.9919C148.365 28.9226 148.014 27.7068 148.014 26.3445C148.014 25.0847 148.248 23.9714 148.717 23.0046C149.186 22.0378 149.881 21.2249 150.804 20.5657C151.727 19.8918 152.87 19.3865 154.232 19.0496C155.609 18.698 157.184 18.5222 158.956 18.5222H162.867ZM178.929 14.0837V33.0022H173.128V9.22778H178.622L178.929 14.0837ZM186.158 9.07397L186.07 14.4792C185.748 14.4207 185.382 14.3767 184.972 14.3474C184.576 14.3181 184.203 14.3035 183.851 14.3035C182.958 14.3035 182.174 14.428 181.5 14.677C180.826 14.9114 180.262 15.2556 179.808 15.7097C179.369 16.1638 179.032 16.7205 178.797 17.3796C178.563 18.0242 178.431 18.7566 178.402 19.5769L177.149 19.4231C177.149 17.9143 177.303 16.5154 177.611 15.2263C177.918 13.9373 178.365 12.8093 178.951 11.8425C179.537 10.8757 180.27 10.1287 181.148 9.60132C182.042 9.05933 183.067 8.78833 184.225 8.78833C184.547 8.78833 184.891 8.81763 185.257 8.87622C185.638 8.92017 185.938 8.98608 186.158 9.07397ZM195.035 14.3035V33.0022H189.234V9.22778H194.684L195.035 14.3035ZM194.112 20.2581H192.398C192.413 18.5295 192.647 16.9622 193.102 15.5559C193.556 14.1497 194.193 12.9412 195.013 11.9304C195.848 10.9197 196.837 10.1433 197.979 9.60132C199.122 9.05933 200.396 8.78833 201.803 8.78833C202.945 8.78833 203.978 8.94946 204.901 9.27173C205.824 9.59399 206.615 10.1067 207.274 10.8098C207.948 11.5129 208.46 12.4358 208.812 13.5784C209.178 14.7063 209.361 16.0979 209.361 17.7532V33.0022H203.517V17.7092C203.517 16.6252 203.355 15.7683 203.033 15.1384C202.726 14.5085 202.271 14.0618 201.671 13.7981C201.085 13.5344 200.36 13.4026 199.496 13.4026C198.602 13.4026 197.818 13.5857 197.145 13.9519C196.485 14.3035 195.929 14.7942 195.475 15.4241C195.035 16.054 194.698 16.7791 194.464 17.5994C194.229 18.4197 194.112 19.3059 194.112 20.2581Z" fill="black"/>
</svg>
