<svg width="36" height="36" viewBox="0 0 36 36" fill="none" xmlns="http://www.w3.org/2000/svg">
<path d="M12.7816 17.7448C13.5888 17.7448 14.2431 18.3992 14.2431 19.2064C14.2431 20.0136 13.5888 20.6678 12.7816 20.6678C11.9745 20.6678 11.3202 20.0136 11.3202 19.2064C11.3202 18.3992 11.9745 17.7448 12.7816 17.7448ZM17.8827 7.32387V16.2865L17.8834 17.023L28.7356 17.0215L26.2237 14.5077C25.8355 14.1194 25.8002 13.5117 26.118 13.0836L26.224 12.9609C26.6124 12.5727 27.2199 12.5375 27.6481 12.8553L27.7707 12.9612L32.1408 17.3327C32.5287 17.7208 32.5643 18.3277 32.2472 18.7559L32.1415 18.8785L27.7715 23.2585C27.3449 23.6862 26.6523 23.687 26.2248 23.2604C25.836 22.8725 25.7999 22.2649 26.1171 21.8363L26.223 21.7135L28.721 19.209L17.8834 19.2105L17.8827 29.0469C17.8827 29.7271 17.2684 30.2423 16.5987 30.124L4.20283 27.9346C3.68025 27.8423 3.29932 27.3882 3.29932 26.8575V9.35946C3.29932 8.8238 3.68725 8.36696 4.21584 8.28016L16.6117 6.24458C17.2776 6.13523 17.8827 6.64906 17.8827 7.32387ZM15.6952 8.61187L5.48682 10.2882V25.9401L15.6952 27.7432V8.61187ZM19.341 27.9551L20.4569 27.9554L20.6054 27.9453C21.1398 27.8727 21.5515 27.4142 21.5506 26.8597L21.5402 20.6615H19.341V27.9551ZM19.3439 15.5574L19.341 13.6985V8.26569L20.4279 8.26571C20.9809 8.26571 21.4382 8.67626 21.5114 9.20941L21.5216 9.35765L21.5314 15.5574H19.3439Z" fill="#FF1C1F"/>
</svg>
