<svg width="26" height="28" viewBox="0 0 26 28" fill="none" xmlns="http://www.w3.org/2000/svg">
<path d="M12.518 0.424561C18.1553 0.424561 22.7583 4.87156 22.9519 10.515L22.9578 10.8643V16.5673L24.8787 20.9603C24.9749 21.1801 25.0244 21.4174 25.0244 21.6574C25.0244 22.6183 24.2455 23.3974 23.2845 23.3974L16.6939 23.3995C16.6939 25.7057 14.8243 27.5754 12.518 27.5754C10.294 27.5754 8.47618 25.8368 8.34916 23.6447L8.34145 23.3963L1.76483 23.3974C1.52633 23.3974 1.29038 23.3482 1.07161 23.2533C0.190218 22.8704 -0.213941 21.8456 0.168906 20.9642L2.0782 16.5685V10.8642C2.07904 5.08086 6.74422 0.424561 12.518 0.424561ZM14.6054 23.3963L10.43 23.3995C10.43 24.5526 11.3649 25.4874 12.518 25.4874C13.6033 25.4874 14.4953 24.6593 14.5963 23.6005L14.6054 23.3963ZM12.518 2.51252C7.89642 2.51252 4.16683 6.23501 4.16616 10.8643V17.0024L2.29538 21.3094H22.7524L20.8698 17.0038L20.8699 10.8822L20.8648 10.5688C20.7101 6.06786 17.0302 2.51252 12.518 2.51252Z" fill="#212121"/>
</svg>
