<svg width="26" height="27" viewBox="0 0 26 27" fill="none" xmlns="http://www.w3.org/2000/svg">
<path d="M12.8971 0.610962C13.8771 0.622258 14.8533 0.735483 15.8098 0.948822C16.2273 1.04195 16.5396 1.39007 16.587 1.81526L16.8143 3.85392C16.9172 4.78996 17.7075 5.49892 18.6497 5.49991C18.9029 5.50031 19.1534 5.44757 19.3875 5.34403L21.2576 4.52252C21.6465 4.35165 22.101 4.44481 22.3913 4.75492C23.7428 6.1983 24.7493 7.92941 25.3351 9.81796C25.4615 10.2252 25.3161 10.6677 24.9729 10.9207L23.3153 12.1426C22.8423 12.49 22.5631 13.0417 22.5631 13.6285C22.5631 14.2152 22.8423 14.7669 23.3163 15.1151L24.9753 16.3374C25.3186 16.5903 25.4641 17.0329 25.3378 17.4403C24.7522 19.3285 23.7463 21.0595 22.3956 22.5031C22.1056 22.8131 21.6515 22.9066 21.2625 22.7361L19.3848 21.9135C18.8475 21.6783 18.2307 21.7128 17.7229 22.0062C17.2152 22.2996 16.8774 22.817 16.813 23.3998L16.5872 25.4383C16.5406 25.8586 16.2351 26.2044 15.8236 26.3023C13.8897 26.7624 11.8747 26.7624 9.9407 26.3023C9.5293 26.2044 9.22373 25.8586 9.17717 25.4383L8.95176 23.4029C8.88555 22.8211 8.54717 22.3053 8.0399 22.0129C7.53264 21.7205 6.9167 21.6862 6.38128 21.92L4.50315 22.7427C4.11413 22.9132 3.65991 22.8198 3.36984 22.5095C2.0184 21.0643 1.01242 19.3312 0.427612 17.4409C0.301649 17.0338 0.447186 16.5915 0.79032 16.3387L2.45042 15.1157C2.92327 14.7682 3.20252 14.2165 3.20252 13.6299C3.20252 13.043 2.92327 12.4913 2.44979 12.1435L0.790734 10.9225C0.447106 10.6696 0.301436 10.2268 0.427839 9.81929C1.01366 7.93074 2.02016 6.19964 3.37164 4.75626C3.66199 4.44614 4.11643 4.35299 4.50537 4.52385L6.37517 5.34522C6.91317 5.58133 7.53169 5.54567 8.0417 5.24771C8.5495 4.95316 8.88758 4.43528 8.95284 3.85235L9.17992 1.81526C9.22735 1.38985 9.53992 1.04162 9.95775 0.948688C10.9155 0.735696 11.8927 0.622511 12.8971 0.610962ZM12.8973 2.61363C12.291 2.62076 11.6866 2.67309 11.0887 2.77001L10.9433 4.07472C10.8073 5.28908 10.1036 6.36705 9.04931 6.97858C7.98856 7.5983 6.69527 7.67289 5.56998 7.17905L4.37059 6.65217C3.60694 7.57902 2.99913 8.62398 2.57104 9.74599L3.63626 10.5299C4.62273 11.2547 5.20533 12.4057 5.20533 13.6299C5.20533 14.8538 4.62273 16.0049 3.63731 16.7289L2.57041 17.5149C2.99813 18.6389 3.60604 19.6858 4.3702 20.6144L5.57873 20.085C6.69776 19.5965 7.98224 19.6679 9.04011 20.2777C10.098 20.8875 10.8036 21.9631 10.9421 23.1794L11.0876 24.4931C12.2754 24.6951 13.489 24.6951 14.6768 24.4931L14.8223 23.1795C14.9569 21.9637 15.6617 20.8843 16.7208 20.2722C17.7799 19.66 19.067 19.5882 20.1881 20.0789L21.3956 20.6079C22.1591 19.6807 22.7668 18.6355 23.1948 17.5133L22.1293 16.7283C21.1429 16.0036 20.5603 14.8525 20.5603 13.6285C20.5603 12.4044 21.1429 11.2533 22.1281 10.5295L23.1922 9.7452C22.7641 8.62299 22.1562 7.57783 21.3924 6.65083L20.1954 7.17665C19.7077 7.39247 19.18 7.50354 18.6471 7.50272C16.6848 7.50066 15.0378 6.02327 14.8236 4.07425L14.6782 2.76958C14.0834 2.67278 13.4851 2.6206 12.8973 2.61363ZM12.8804 8.62211C15.6457 8.62211 17.8874 10.8638 17.8874 13.6292C17.8874 16.3944 15.6457 18.6362 12.8804 18.6362C10.1151 18.6362 7.87337 16.3944 7.87337 13.6292C7.87337 10.8638 10.1151 8.62211 12.8804 8.62211ZM12.8804 10.6249C11.2213 10.6249 9.87617 11.9699 9.87617 13.6292C9.87617 15.2883 11.2213 16.6334 12.8804 16.6334C14.5395 16.6334 15.8846 15.2883 15.8846 13.6292C15.8846 11.9699 14.5395 10.6249 12.8804 10.6249Z" fill="#212121"/>
</svg>
