<svg width="26" height="26" viewBox="0 0 26 26" fill="none" xmlns="http://www.w3.org/2000/svg">
<path d="M12.8829 0.12915C19.7864 0.12915 25.3828 5.7256 25.3828 12.6292C25.3828 19.5327 19.7864 25.1291 12.8829 25.1291C5.97926 25.1291 0.382812 19.5327 0.382812 12.6292C0.382812 5.7256 5.97926 0.12915 12.8829 0.12915ZM16.5559 18.2529H9.20976C10.0247 21.2702 11.4412 23.2544 12.8829 23.2544C14.3245 23.2544 15.7409 21.2702 16.5559 18.2529ZM7.26908 18.2537L3.86649 18.2536C5.06423 20.1695 6.85577 21.6763 8.98342 22.5162C8.33067 21.4916 7.79202 20.2089 7.39583 18.7474L7.26908 18.2537ZM21.8992 18.2536L18.4966 18.2537C18.0919 19.9207 17.5075 21.3777 16.7809 22.5162C18.7768 21.7288 20.4762 20.3552 21.6678 18.6079L21.8992 18.2536ZM6.75055 10.1287H2.55418L2.54824 10.1503C2.35816 10.9456 2.25753 11.7756 2.25753 12.6292C2.25753 13.9492 2.49821 15.2129 2.93812 16.379L6.90396 16.3785C6.72612 15.1923 6.63186 13.9322 6.63186 12.6292C6.63186 11.7743 6.67243 10.9379 6.75055 10.1287ZM17.1283 10.1288H8.63732C8.55231 10.9291 8.50656 11.7661 8.50656 12.6292C8.50656 13.9533 8.61423 15.216 8.80619 16.3787H16.9595C17.1514 15.216 17.2591 13.9533 17.2591 12.6292C17.2591 11.7661 17.2133 10.9291 17.1283 10.1288ZM23.212 10.1277L19.0152 10.1288C19.0933 10.9379 19.1338 11.7743 19.1338 12.6292C19.1338 13.9322 19.0395 15.1923 18.8617 16.3785L22.8276 16.379C23.2674 15.2129 23.5081 13.9492 23.5081 12.6292C23.5081 11.7676 23.4056 10.9299 23.212 10.1277ZM8.98475 2.74213L8.95611 2.75302C6.39737 3.77126 4.32766 5.75509 3.19699 8.25453L7.00656 8.25499C7.3982 6.06434 8.08165 4.15722 8.98475 2.74213ZM12.8829 2.00386L12.7382 2.01049C11.1567 2.15515 9.62886 4.65723 8.91933 8.25447H16.8464C16.1387 4.66732 14.6175 2.16919 13.0407 2.01175L12.8829 2.00386ZM16.7823 2.7422L16.9157 2.95978C17.7521 4.35015 18.3873 6.17473 18.7591 8.25499L22.5686 8.25453C21.488 5.86565 19.5496 3.94777 17.1462 2.89377L16.7823 2.7422Z" fill="#212121"/>
</svg>
