<svg width="26" height="26" viewBox="0 0 26 26" fill="none" xmlns="http://www.w3.org/2000/svg">
<path d="M2.30404 10.2222C2.30404 6.00338 5.72409 2.58334 9.94294 2.58334C14.1618 2.58334 17.5818 6.00338 17.5818 10.2222C17.5818 14.4411 14.1618 17.8611 9.94294 17.8611C5.72409 17.8611 2.30404 14.4411 2.30404 10.2222ZM9.94294 0.5C4.5735 0.5 0.220703 4.8528 0.220703 10.2222C0.220703 15.5917 4.5735 19.9445 9.94294 19.9445C12.2524 19.9445 14.3738 19.1392 16.0417 17.7942L23.4425 25.1949C23.8493 25.6017 24.5088 25.6017 24.9156 25.1949C25.3224 24.7881 25.3224 24.1286 24.9156 23.7218L17.5149 16.321C18.8599 14.6531 19.6652 12.5317 19.6652 10.2222C19.6652 4.8528 15.3124 0.5 9.94294 0.5Z" fill="#212121"/>
</svg>
